<svg width="26" height="26" viewBox="0 0 26 26" fill="none" xmlns="http://www.w3.org/2000/svg">
<path fill-rule="evenodd" clip-rule="evenodd" d="M13.0281 2.16666C7.05998 2.16666 2.2229 7.00375 2.2229 12.9718C2.2229 17.745 5.31798 21.7956 9.61232 23.2256C10.1529 23.3231 10.3479 22.9905 10.3479 22.7045C10.3479 22.4478 10.3392 21.7674 10.336 20.8672C7.32973 21.5193 6.6949 19.4177 6.6949 19.4177C6.20523 18.1697 5.49565 17.8371 5.49565 17.8371C4.51523 17.1665 5.5704 17.1817 5.5704 17.1817C6.6559 17.2575 7.22465 18.2953 7.22465 18.2953C8.18882 19.9463 9.75532 19.4697 10.3685 19.1934C10.4671 18.4947 10.7487 18.018 11.0564 17.7483C8.6579 17.4763 6.1359 16.549 6.1359 12.4074C6.1359 11.2298 6.55732 10.2635 7.24523 9.5095C7.13582 9.23542 6.76207 8.13583 7.35248 6.6495C7.35248 6.6495 8.25923 6.35808 10.323 7.75558C11.2044 7.51581 12.1136 7.39342 13.027 7.39158C13.9404 7.39306 14.8497 7.51546 15.731 7.75558C17.7958 6.357 18.7015 6.6495 18.7015 6.6495C19.2919 8.13583 18.9214 9.23542 18.8087 9.5095C19.5021 10.2635 19.9181 11.2288 19.9181 12.4074C19.9181 16.5598 17.3939 17.472 14.9867 17.7396C15.3713 18.0733 15.718 18.7319 15.718 19.7394C15.718 21.1846 15.705 22.3503 15.705 22.7045C15.705 22.9938 15.8978 23.3296 16.4492 23.2234C20.7414 21.7913 23.8332 17.7439 23.8332 12.9718C23.8332 7.00375 18.9962 2.16666 13.0281 2.16666Z" fill="#D3D7E7"/>
</svg>
