<svg width="26" height="26" viewBox="0 0 26 26" fill="none" xmlns="http://www.w3.org/2000/svg">
<path d="M5.39817 7.79675C6.70726 7.79675 7.7685 6.73552 7.7685 5.42642C7.7685 4.11732 6.70726 3.05608 5.39817 3.05608C4.08907 3.05608 3.02783 4.11732 3.02783 5.42642C3.02783 6.73552 4.08907 7.79675 5.39817 7.79675Z" fill="#D3D7E7"/>
<path d="M10.0069 9.59291V22.7435H14.0899V16.2402C14.0899 14.5242 14.4128 12.8624 16.5404 12.8624C18.6389 12.8624 18.6649 14.8243 18.6649 16.3486V22.7446H22.7501V15.5328C22.7501 11.9903 21.9874 9.26791 17.8469 9.26791C15.859 9.26791 14.5265 10.3588 13.9816 11.3912H13.9264V9.59291H10.0069ZM3.35303 9.59291H7.44261V22.7435H3.35303V9.59291Z" fill="#D3D7E7"/>
</svg>
